<svg width="110" height="37" viewBox="0 0 110 37" fill="none" xmlns="http://www.w3.org/2000/svg">
<path d="M109.968 11.5262L104.214 12.7553C103.935 12.8252 103.649 12.8674 103.362 12.8807C102.684 12.8807 102.307 12.4866 102.23 11.6983V0.169998H102.211L98.2777 1.01716V3.1445L98.11 3.18003C97.7418 2.61962 97.2325 2.16597 96.6333 1.86465C96.0341 1.56334 95.3661 1.42499 94.6965 1.4635C94.2029 1.4764 93.7115 1.53325 93.228 1.63338C92.332 1.81627 91.4693 2.1353 90.6699 2.57936L90.5288 2.66263C89.4343 3.32277 88.4942 4.20987 87.7718 5.26407C86.8947 6.53706 86.2821 7.973 85.9701 9.48688C85.6582 11.0008 85.6532 12.5618 85.9557 14.0777C86.0967 14.7683 86.3278 15.4367 86.6421 16.0662L86.831 16.4359L84.0695 17.0666C83.7918 17.1365 83.5075 17.1776 83.2209 17.1898C82.4766 17.1898 82.1079 16.7812 82.0879 15.8397V10.2582C82.0798 9.48726 82.001 8.71867 81.8524 7.96211C81.5169 6.38214 80.5927 5.38953 79.212 5.09086L79.0843 5.06866C78.8182 5.02057 78.5482 4.99715 78.2779 4.99871C77.8558 5.00204 77.4348 5.04867 77.0227 5.1386C76.8072 5.18635 76.5894 5.24297 76.3751 5.30848C75.5686 5.50834 73.4315 6.28111 71.4098 9.13792C70.9799 8.06647 70.2712 7.4225 69.2504 7.20266C68.9568 7.1411 68.6574 7.11132 68.3574 7.11383C67.8797 7.11939 67.4032 7.1749 66.9378 7.27927C66.0986 7.44901 65.2898 7.74395 64.5384 8.15419C64.49 8.17964 64.4425 8.20705 64.3963 8.23635C63.3429 8.82143 62.5225 9.75039 62.0725 10.8678L61.867 10.9133V8.78595L57.9192 9.62534V22.6314L48.5441 24.6344V18.077C49.0162 16.0007 50.1992 14.7938 52.1153 14.383C52.4708 14.3053 52.834 14.2642 53.1983 14.2609C53.556 14.2584 53.9124 14.3058 54.2569 14.4019L54.2314 10.3526V10.2971C54.026 10.2361 53.8124 10.2072 53.5982 10.2116C53.295 10.2155 52.9931 10.2512 52.6974 10.3182C52.0013 10.4606 51.3358 10.7244 50.7313 11.0976L50.6124 11.1742C49.6926 11.7733 48.9988 12.6617 48.6408 13.699L48.3753 13.7557V11.6516L44.4897 12.4788L44.4275 12.4899L42.1137 12.9851L42.1682 16.3627L44.4275 15.8897V25.5093L40.4775 26.3532C40.1998 26.4231 39.9155 26.4653 39.6289 26.4786C38.8847 26.4786 38.4992 26.0068 38.4825 25.0608V13.7623L37.1718 14.0366L34.6003 14.5851L34.5081 14.6039V16.7324L34.3304 16.7679L34.0694 16.4515C33.3596 15.5055 32.3099 15.0458 30.9436 15.0492C30.4495 15.0535 29.9572 15.1105 29.4751 15.219C27.2495 15.663 25.2889 16.9664 24.0189 18.8464C23.7767 19.2006 23.5535 19.5681 23.3524 19.9456C23.3102 20.0233 23.268 20.1066 23.2247 20.1832L23.1902 20.2609C22.9727 20.7006 22.7845 21.1542 22.6271 21.6188L22.436 22.1107C20.892 26.9516 19.4424 28.3462 18.0884 29.6163C11.8168 35.4565 5.35312 32.492 4.41005 27.9176C3.6847 24.3857 4.66109 21.8409 6.17066 19.6769C7.58914 17.6495 9.50415 16.3915 12.0623 15.8475C12.7511 15.7018 13.4533 15.6289 14.1573 15.6299C14.455 15.6299 14.7638 15.6299 15.0814 15.6632L15.3669 15.6854L15.4691 19.2961L18.6482 18.6188V12.5299C17.9984 12.1946 17.0076 11.9969 15.6979 11.9459C14.2692 11.8461 12.8335 11.9462 11.4325 12.2434C7.79575 13.0195 4.8677 14.8027 2.73164 17.544C0.301225 20.7128 -0.608515 25.0941 0.454515 29.321C2.01296 35.5076 7.39142 36.6068 9.34864 36.7201C14.5827 37.0254 18.6726 33.8 18.6726 33.8C19.9789 32.7707 21.0786 31.8603 22.7759 29.462L23.0358 29.9061C23.9811 31.5294 25.5162 32.3854 27.5112 32.3821C27.8958 32.3808 28.2797 32.3511 28.6598 32.2933L28.7287 32.2822C30.0072 32.1256 33.0408 31.7825 35.2535 28.5804C35.9033 29.6208 36.8819 30.1349 38.2482 30.1349C38.5248 30.1315 38.8002 30.1115 39.0735 30.0749L62.0225 25.1873V14.997C62.5623 13.0617 63.7942 11.716 65.3515 11.3852C65.5793 11.3352 65.8114 11.3074 66.0447 11.3052C67.0222 11.3052 67.6309 11.8304 67.8531 12.8663C67.9252 13.2327 67.973 13.6024 67.9941 13.9744V23.9072L72.1074 23.0322V12.8097C72.5639 11.0421 73.8836 9.56427 75.3176 9.26227C75.5586 9.20898 75.8052 9.18122 76.0507 9.179C77.0349 9.179 77.6658 9.68974 77.8724 10.6646C77.9446 11.1409 77.9779 11.6228 77.9724 12.1046V16.4326C77.9375 17.1294 77.986 17.828 78.1168 18.5133C78.4411 20.0433 79.6608 20.9138 81.3303 20.9138C81.7558 20.9071 82.1801 20.8583 82.5966 20.7694C82.8332 20.7384 92.5471 18.6765 92.5471 18.6765C94.3677 18.2657 97.2202 17.8482 99.0153 15.0014C99.6629 16.0329 100.639 16.5403 102.001 16.5381C102.419 16.5326 102.836 16.4876 103.246 16.4037L109.984 14.967L109.968 11.5262ZM34.3482 24.9608C33.6839 27.0327 32.2532 28.4827 30.4571 28.8624C30.146 28.9313 29.8295 28.9679 29.5107 28.9713C27.84 28.9713 26.6904 27.8998 26.2727 25.9468C25.915 24.2702 26.2316 22.5581 27.2169 20.8616C27.6631 20.1213 28.2901 19.5065 29.0391 19.0748C29.7881 18.6431 30.6345 18.4086 31.499 18.3934C32.7775 18.3934 33.7328 18.9808 34.336 20.1455L34.3471 24.9608H34.3482ZM98.1166 11.2941C97.4613 13.4059 96.0195 14.8837 94.2022 15.269C93.8912 15.3378 93.5746 15.3745 93.2558 15.3789C91.5829 15.3789 90.4344 14.3075 90.0178 12.3534C89.6602 10.6768 89.9756 8.96471 90.9631 7.26928C91.3158 6.66807 91.7902 6.14714 92.3561 5.73988C92.9219 5.33263 93.5666 5.04803 94.2488 4.90433C94.581 4.83105 94.9186 4.7933 95.2586 4.79108C96.5515 4.79108 97.5135 5.38953 98.1289 6.57867L98.1166 11.2941Z" fill="#E83657"/>
</svg>
